<?xml version="1.0" encoding="UTF-8" standalone="no"?>
<!-- Created with Inkscape (http://www.inkscape.org/) -->

<svg
   width="210mm"
   height="297mm"
   viewBox="0 0 210 297"
   version="1.1"
   id="svg1"
   xml:space="preserve"
   inkscape:version="1.3.2 (091e20e, 2023-11-25, custom)"
   sodipodi:docname="LogoPonzone.svg"
   inkscape:export-filename="LogoPonzone.png"
   inkscape:export-xdpi="96"
   inkscape:export-ydpi="96"
   xmlns:inkscape="http://www.inkscape.org/namespaces/inkscape"
   xmlns:sodipodi="http://sodipodi.sourceforge.net/DTD/sodipodi-0.dtd"
   xmlns="http://www.w3.org/2000/svg"
   xmlns:svg="http://www.w3.org/2000/svg"><sodipodi:namedview
     id="namedview1"
     pagecolor="#ffffff"
     bordercolor="#666666"
     borderopacity="1.0"
     inkscape:showpageshadow="2"
     inkscape:pageopacity="0.0"
     inkscape:pagecheckerboard="0"
     inkscape:deskcolor="#d1d1d1"
     inkscape:document-units="mm"
     inkscape:zoom="0.70148532"
     inkscape:cx="259.44948"
     inkscape:cy="472.56869"
     inkscape:window-width="1920"
     inkscape:window-height="1017"
     inkscape:window-x="155"
     inkscape:window-y="-8"
     inkscape:window-maximized="1"
     inkscape:current-layer="layer1" /><defs
     id="defs1" /><g
     inkscape:label="Capa 1"
     inkscape:groupmode="layer"
     id="layer1"><path
       style="fill:#001c24;fill-opacity:1;stroke-width:1"
       d="M 15.086149,248.45799 C 2.0460548,239.73156 -2.972694,239.24897 4.9031699,226.40575 9.222926,217.35258 14.726832,209.13496 22.89007,199.9372 c 6.282167,-7.49154 11.248383,-11.06679 18.998943,-14.00837 15.711855,-4.6649 18.335163,2.80773 24.70593,-0.88682 13.202283,-9.41384 14.812758,-9.27212 25.288579,-16.95405 7.020389,-5.57508 6.412555,-4.54204 20.970838,-16.75557 8.14356,-6.44881 17.4971,-14.78566 17.4971,-14.78566 6.64997,-6.36531 10.25696,-8.94536 13.24386,-13.01665 4.63443,-5.61003 6.91435,-6.96538 -3.68114,-6.89229 -1.40946,0.01 -3.0177,-0.0852 -4.8479,-0.13975 -36.545174,-0.21631 -78.718785,-0.64853 -115.264329,-0.64456 -6.558911,0.27012 -7.857747,0.0361 -7.860752,-6.06823 0.03466,-9.76058 -5.7e-5,-15.484796 0.03105,-22.750781 0.143112,-5.664019 0.927107,-5.431278 8.124969,-5.425427 H 90.684152 C 87.816572,74.240355 83.718656,67.538765 79.20195,61.480474 c -4.91058,-5.829918 -5.58266,-12.410171 2.198245,-15.55715 2.896072,-0.901211 18.188241,-1.626882 25.948485,0.323924 4.59157,7.655163 7.83576,15.437403 11.10891,23.801914 2.01559,6.154674 2.3025,12.086898 10.41643,11.559771 20.80061,0.167199 26.41198,0.216311 70.04756,0.73737 -0.30622,6.415765 -0.0993,15.083502 -0.57157,32.764027 -9.04225,12.65405 -8.30485,11.11705 -14.03573,18.44014 -6.93772,8.77249 -8.84436,11.25518 -16.96971,20.11342 -7.15655,8.10757 -10.00546,10.52459 -20.78124,19.98886 -8.86536,7.07433 -10.84376,9.13993 -19.15362,15.05405 -7.1748,4.93718 -10.60352,6.64102 -19.22536,12.48444 -4.42556,3.20906 -10.35572,4.3072 -3.18435,8.69014 8.9822,4.75151 15.66862,4.10995 23.55635,5.18636 29.46273,1.73874 45.65883,1.67949 74.36786,1.71749 0.082,8.23683 -0.26218,21.10131 -1.16165,31.3746 -0.5362,5.58464 -3.81711,4.3357 -9.22102,4.6458 -31.4271,0.33549 -60.80091,0.0325 -86.15316,-1.63056 -7.977195,-1.32123 -11.595259,-0.61658 -21.938276,-5.74791 -9.45502,-4.40931 -16.855748,-10.02927 -23.74979,-16.32034 -8.109539,-7.65603 -8.815921,-2.78612 -14.856815,6.18615 -12.830287,18.48276 -14.78844,21.69564 -22.970369,17.64702 z"
       id="path2"
       sodipodi:nodetypes="cccccccccsccccccccccccccccccccccccccccc" /></g></svg>
