<?xml version="1.0" encoding="UTF-8" standalone="no"?>
<!-- Created with Inkscape (http://www.inkscape.org/) -->

<svg
   width="210mm"
   height="297mm"
   viewBox="0 0 210 297"
   version="1.1"
   id="svg1"
   xml:space="preserve"
   inkscape:version="1.3.2 (091e20e, 2023-11-25, custom)"
   sodipodi:docname="LogoPonzone.svg"
   inkscape:export-filename="LogoPonzone.png"
   inkscape:export-xdpi="96"
   inkscape:export-ydpi="96"
   xmlns:inkscape="http://www.inkscape.org/namespaces/inkscape"
   xmlns:sodipodi="http://sodipodi.sourceforge.net/DTD/sodipodi-0.dtd"
   xmlns="http://www.w3.org/2000/svg"
   xmlns:svg="http://www.w3.org/2000/svg"><sodipodi:namedview
     id="namedview1"
     pagecolor="#ffffff"
     bordercolor="#666666"
     borderopacity="1.0"
     inkscape:showpageshadow="2"
     inkscape:pageopacity="0.0"
     inkscape:pagecheckerboard="0"
     inkscape:deskcolor="#d1d1d1"
     inkscape:document-units="mm"
     inkscape:zoom="0.70148532"
     inkscape:cx="236.64073"
     inkscape:cy="559.52704"
     inkscape:window-width="1920"
     inkscape:window-height="1017"
     inkscape:window-x="155"
     inkscape:window-y="-8"
     inkscape:window-maximized="1"
     inkscape:current-layer="layer1" /><defs
     id="defs1" /><g
     inkscape:label="Capa 1"
     inkscape:groupmode="layer"
     id="layer1"><path
       style="fill:#e31c24;stroke-width:1;fill-opacity:1"
       d="M 16.673649,251.10382 C 3.6335548,242.37739 0.20230598,245.0698 8.0781699,232.22658 c 4.3197561,-9.05317 8.7653281,-16.21245 16.9285661,-25.41021 6.282167,-7.49154 10.19005,-12.12513 17.94061,-15.06671 15.711855,-4.6649 19.393497,2.27856 25.764264,-1.41599 26.004056,-17.5483 0.187855,-0.12024 25.665754,-17.33682 7.020386,-5.57508 6.564546,-4.92482 21.122826,-17.13835 6.82344,-5.88305 20.02194,-20.16602 20.02194,-20.16602 13.62772,-16.36047 12.25824,-15.26866 15.24514,-19.33995 4.80192,-7.59537 3.81284,-7.21063 -15.70099,-7.792 -36.545174,-0.21631 -72.368785,-0.64853 -108.914329,-0.64456 -6.558911,0.27012 -7.857747,0.0361 -7.860752,-6.06823 0.03466,-9.760569 -5.7e-5,-11.251453 0.03105,-18.517438 0.143112,-5.664019 0.927107,-5.431278 8.124969,-5.425427 H 90.684152 C 87.816572,70.536188 83.718656,63.834598 79.20195,57.776307 c -4.91058,-5.829918 -5.58266,-12.410171 2.198245,-15.55715 2.896072,-0.901211 18.188241,-1.626882 25.948485,0.323924 4.59157,7.655163 7.83576,15.437403 11.10891,23.801914 2.01559,6.154674 2.3025,12.086898 10.41643,11.559771 20.80061,0.167199 25.35365,0.216311 68.98923,0.73737 -0.30622,6.415765 -0.0993,10.850168 -0.57157,28.530684 -5.64178,10.38707 -2.3805,5.0542 -14.16908,22.3401 -6.40431,8.70581 -9.91574,13.93041 -18.04109,22.78865 -7.15655,8.10757 -11.04939,11.81371 -20.78124,19.3921 -8.86536,7.07433 -13.96708,10.40058 -21.61018,16.5814 -8.64167,6.67075 -15.85926,12.21243 -24.481103,18.05585 -4.425562,3.20906 -10.903906,6.57585 -3.732536,10.95879 8.982209,4.75151 19.166619,6.14782 29.317409,5.71552 28.70837,0.23004 53.59632,0.092 82.30535,0.13 0.082,8.23683 -0.26218,13.69298 -1.16165,23.96627 -0.5362,5.58464 -3.81711,4.3357 -9.22102,4.6458 -31.4271,0.33549 -63.97591,0.0325 -89.32816,-1.63056 -7.977195,-1.32123 -11.595259,-0.61658 -21.938276,-5.74791 -9.45502,-4.40931 -16.326581,-8.97094 -23.220623,-15.26201 -9.995418,-10.67344 -14.557958,-3.24209 -19.090149,4.59865 -12.830287,18.48276 -11.084273,24.87064 -19.266202,20.82202 z"
       id="path2"
       sodipodi:nodetypes="cccccccccccccccccccccccccccccccccccccc" /></g></svg>
